<svg xmlns="http://www.w3.org/2000/svg" viewBox="0 0 80 64" fill="none">
  <path d="M40 11.6C37.5 7.6 31.8 6.8 28.4 10.1C24.9 13.4 25.2 19 28.8 22.1L40 31.4L51.2 22.1C54.8 19 55.1 13.4 51.6 10.1C48.2 6.8 42.5 7.6 40 11.6Z" fill="#A74D5F"/>
  <path d="M24 15.5L20.1 18.8C18.5 20.1 17.6 22 17.6 24.1V27.1" stroke="#183753" stroke-width="2.5" stroke-linecap="round" stroke-linejoin="round"/>
  <path d="M56 15.5L59.9 18.8C61.5 20.1 62.4 22 62.4 24.1V27.1" stroke="#183753" stroke-width="2.5" stroke-linecap="round" stroke-linejoin="round"/>
  <path d="M17.6 27.1C17.6 41.5 27.3 50.4 40.7 50.4H47.9C54.8 50.4 60.4 56 60.4 62.9" stroke="#183753" stroke-width="2.5" stroke-linecap="round" stroke-linejoin="round"/>
  <path d="M62.4 27.1C62.4 38.2 53.4 47.2 42.3 47.2H39.6" stroke="#183753" stroke-width="2.5" stroke-linecap="round" stroke-linejoin="round"/>
  <circle cx="62.4" cy="59.5" r="4.8" stroke="#183753" stroke-width="2.5"/>
  <circle cx="62.4" cy="59.5" r="1.6" fill="#A74D5F"/>
</svg>
